<?xml version="1.0" encoding="utf-8"?>
<!-- Generator: Adobe Illustrator 16.0.3, SVG Export Plug-In . SVG Version: 6.00 Build 0)  -->
<!DOCTYPE svg PUBLIC "-//W3C//DTD SVG 1.1//EN" "http://www.w3.org/Graphics/SVG/1.1/DTD/svg11.dtd">
<svg version="1.1" id="レイヤー_1" xmlns="http://www.w3.org/2000/svg" xmlns:xlink="http://www.w3.org/1999/xlink" x="0px"
	 y="0px" width="24" height="48" viewBox="0 0 24 48" enable-background="new 0 0 24 48"
	 xml:space="preserve">
<style>
	.disabled	{ fill: #bbbbbb; }
	.enabled	{ fill: #78b2f2; }
</style>
<g class="disabled">
	<path d="M18.374,3.5h-2.108c0.45,0.02,0.917,0.058,1.425,0.129c0.529,0.07,1.063,0.216,1.264,0.344
		c0.293,0.115,0.512,0.332,0.601,0.589c0.07,0.203,0.054,0.415-0.046,0.596c-0.152,0.275-0.817,0.84-1.193,0.84
		c-0.549,0.03-0.831-0.272-0.844-0.905c0-0.207,0.032-0.498,0.078-0.644c-0.326-0.027-0.637-0.04-0.928-0.04
		c-1.661,0-2.798,0.414-3.476,1.267c-1.182,1.487-0.759,4.159-0.259,6.319c0.094,0.5,0.2,0.999,0.307,1.496
		c0.521,2.443,1.013,4.752-0.066,6.085c-0.382,0.472-0.945,0.768-1.674,0.921h6.92c1.172,0,2.125-0.951,2.125-2.125V5.625
		C20.499,4.451,19.547,3.5,18.374,3.5z"/>
	<path d="M8.343,20.447c-0.808-0.137-2.452-0.853-3.481-1.436c-0.312-0.178-0.538-0.325-0.692-0.453
		c-0.021-0.015-0.048-0.04-0.075-0.063c-0.039-0.038-0.062-0.063-0.082-0.086c-0.275-0.296-0.346-0.688-0.17-1.004
		c0.167-0.307,0.53-0.489,0.969-0.489c0.208,0,0.424,0.043,0.622,0.125c0.363,0.153,0.63,0.416,0.735,0.723
		c0.06,0.17,0.063,0.344,0.014,0.505c0.689,0.112,1.313,0.167,1.857,0.167c1.273,0,2.154-0.296,2.692-0.906
		c0.972-1.104,0.717-3.089,0.448-5.191c-0.056-0.439-0.111-0.879-0.158-1.313c-0.32-2.046-0.521-4.604,0.787-6.132
		c0.717-0.837,1.794-1.296,3.28-1.396H5.625C4.451,3.5,3.5,4.451,3.5,5.625v12.75c0,1.174,0.951,2.125,2.125,2.125h3.112
		C8.606,20.48,8.481,20.47,8.343,20.447z"/>
</g>
<g class="enabled">
	<path d="M18.374,27.5h-2.108c0.45,0.021,0.917,0.058,1.425,0.13c0.529,0.07,1.063,0.216,1.264,0.343
		c0.293,0.115,0.512,0.333,0.601,0.589c0.07,0.203,0.054,0.415-0.046,0.597C19.358,29.435,18.693,30,18.317,30
		c-0.549,0.031-0.831-0.272-0.844-0.905c0-0.207,0.032-0.497,0.078-0.643c-0.326-0.025-0.637-0.041-0.928-0.041
		c-1.661,0-2.798,0.415-3.476,1.268c-1.182,1.486-0.759,4.157-0.258,6.318c0.094,0.5,0.2,0.999,0.307,1.495
		c0.521,2.443,1.013,4.753-0.066,6.086c-0.383,0.472-0.945,0.768-1.674,0.921h6.92c1.172,0,2.125-0.952,2.125-2.125v-12.75
		C20.499,28.452,19.547,27.5,18.374,27.5z"/>
	<path d="M8.343,44.447c-0.808-0.136-2.452-0.853-3.481-1.436c-0.312-0.178-0.538-0.325-0.692-0.453
		c-0.021-0.014-0.048-0.04-0.075-0.062c-0.039-0.039-0.062-0.063-0.082-0.087c-0.275-0.297-0.346-0.687-0.17-1.003
		c0.167-0.307,0.53-0.49,0.969-0.49c0.208,0,0.424,0.044,0.622,0.126c0.363,0.153,0.63,0.416,0.735,0.723
		c0.06,0.169,0.063,0.344,0.014,0.505c0.689,0.111,1.313,0.166,1.857,0.166c1.273,0,2.154-0.296,2.692-0.905
		c0.972-1.104,0.717-3.089,0.448-5.191c-0.056-0.438-0.111-0.877-0.158-1.312c-0.32-2.046-0.521-4.604,0.787-6.132
		c0.717-0.838,1.794-1.296,3.28-1.396H5.625c-1.174,0-2.125,0.951-2.125,2.125v12.75c0,1.173,0.951,2.125,2.125,2.125h3.112
		C8.606,44.481,8.481,44.47,8.343,44.447z"/>
</g>
</svg>
